# xmcd
#
# Track frame offsets: 
#        150
#        6030
#        26775
#        48975
#        52315
#        72255
#        90255
#        95300
#        125827
#        143890
#        166800
#        173175
#        184650
#        193105
#        204437
#
# Disc length: 3009 seconds
#
# Revision: 4
# Processed by: cddbd v1.5.2PL0 Copyright (c) Steve Scherf et al.
# Submitted via: ExactAudioCopy v0.99pb4
#
DISCID=cf0bbf0f
DTITLE=Tin Hat Trio - Helium
DYEAR=2000
DGENRE=
TTITLE0=A Life in East Poultney
TTITLE1=Helium
TTITLE2=Beverly's March
TTITLE3=Scrap
TTITLE4=Sand Dog Blues
TTITLE5=Fountain of Youth
TTITLE6=Slip
TTITLE7=Width of the World
TTITLE8=Seamstress Extraordinaire
TTITLE9=Esperanto
TTITLE10=Big Blue House
TTITLE11=Old Gray Mare
TTITLE12=Brennero
TTITLE13=Anna Kournikova
TTITLE14=Helium Reprise
EXTD=
EXTT0=
EXTT1=
EXTT2=
EXTT3=
EXTT4=
EXTT5=
EXTT6=
EXTT7=
EXTT8=
EXTT9=
EXTT10=
EXTT11=
EXTT12=
EXTT13=
EXTT14=
PLAYORDER=
